<mxfile host="Electron" agent="Mozilla/5.0 (Macintosh; Intel Mac OS X 10_15_7) AppleWebKit/537.36 (KHTML, like Gecko) draw.io/25.0.2 Chrome/128.0.6613.186 Electron/32.2.5 Safari/537.36" version="25.0.2">
  <diagram name="Page-1" id="MOhUH4hJnnMsa3N8j8xM">
    <mxGraphModel dx="870" dy="779" grid="1" gridSize="10" guides="1" tooltips="1" connect="1" arrows="1" fold="1" page="1" pageScale="1" pageWidth="850" pageHeight="1100" math="0" shadow="0">
      <root>
        <mxCell id="0" />
        <mxCell id="1" parent="0" />
        <mxCell id="bPSPjtZm-p1JGHKQZ9GO-15" style="rounded=0;orthogonalLoop=1;jettySize=auto;html=1;" edge="1" parent="1" source="bPSPjtZm-p1JGHKQZ9GO-2" target="bPSPjtZm-p1JGHKQZ9GO-14">
          <mxGeometry relative="1" as="geometry">
            <Array as="points">
              <mxPoint x="90" y="100" />
            </Array>
          </mxGeometry>
        </mxCell>
        <mxCell id="bPSPjtZm-p1JGHKQZ9GO-2" value="" style="ellipse;whiteSpace=wrap;html=1;aspect=fixed;fillColor=none;strokeColor=#ef4444;" vertex="1" parent="1">
          <mxGeometry x="140" y="60" width="40" height="40" as="geometry" />
        </mxCell>
        <mxCell id="bPSPjtZm-p1JGHKQZ9GO-6" value="" style="ellipse;whiteSpace=wrap;html=1;aspect=fixed;dashed=1;fillStyle=cross-hatch;fillColor=#737373;" vertex="1" parent="1">
          <mxGeometry x="120" y="120" width="240" height="240" as="geometry" />
        </mxCell>
        <mxCell id="bPSPjtZm-p1JGHKQZ9GO-16" style="rounded=0;orthogonalLoop=1;jettySize=auto;html=1;" edge="1" parent="1" source="bPSPjtZm-p1JGHKQZ9GO-8" target="bPSPjtZm-p1JGHKQZ9GO-2">
          <mxGeometry relative="1" as="geometry" />
        </mxCell>
        <mxCell id="bPSPjtZm-p1JGHKQZ9GO-8" value="" style="ellipse;whiteSpace=wrap;html=1;aspect=fixed;fillColor=none;strokeColor=#ef4444;" vertex="1" parent="1">
          <mxGeometry x="300" y="60" width="40" height="40" as="geometry" />
        </mxCell>
        <mxCell id="bPSPjtZm-p1JGHKQZ9GO-17" style="rounded=0;orthogonalLoop=1;jettySize=auto;html=1;exitX=0.5;exitY=1;exitDx=0;exitDy=0;" edge="1" parent="1" source="bPSPjtZm-p1JGHKQZ9GO-9" target="bPSPjtZm-p1JGHKQZ9GO-10">
          <mxGeometry relative="1" as="geometry" />
        </mxCell>
        <mxCell id="bPSPjtZm-p1JGHKQZ9GO-9" value="" style="ellipse;whiteSpace=wrap;html=1;aspect=fixed;fillColor=none;strokeColor=#3b82f6;" vertex="1" parent="1">
          <mxGeometry x="380" y="140" width="40" height="40" as="geometry" />
        </mxCell>
        <mxCell id="bPSPjtZm-p1JGHKQZ9GO-18" style="edgeStyle=none;shape=connector;rounded=0;orthogonalLoop=1;jettySize=auto;html=1;strokeColor=default;align=center;verticalAlign=middle;fontFamily=Helvetica;fontSize=11;fontColor=default;labelBackgroundColor=default;endArrow=classic;" edge="1" parent="1" source="bPSPjtZm-p1JGHKQZ9GO-10" target="bPSPjtZm-p1JGHKQZ9GO-11">
          <mxGeometry relative="1" as="geometry" />
        </mxCell>
        <mxCell id="bPSPjtZm-p1JGHKQZ9GO-10" value="" style="ellipse;whiteSpace=wrap;html=1;aspect=fixed;fillColor=none;strokeColor=#3b82f6;" vertex="1" parent="1">
          <mxGeometry x="380" y="300" width="40" height="40" as="geometry" />
        </mxCell>
        <mxCell id="bPSPjtZm-p1JGHKQZ9GO-19" style="edgeStyle=none;shape=connector;rounded=0;orthogonalLoop=1;jettySize=auto;html=1;strokeColor=default;align=center;verticalAlign=middle;fontFamily=Helvetica;fontSize=11;fontColor=default;labelBackgroundColor=default;endArrow=classic;" edge="1" parent="1" source="bPSPjtZm-p1JGHKQZ9GO-11" target="bPSPjtZm-p1JGHKQZ9GO-12">
          <mxGeometry relative="1" as="geometry">
            <Array as="points">
              <mxPoint x="240" y="370" />
            </Array>
          </mxGeometry>
        </mxCell>
        <mxCell id="bPSPjtZm-p1JGHKQZ9GO-11" value="" style="ellipse;whiteSpace=wrap;html=1;aspect=fixed;fillColor=none;strokeColor=#3b82f6;" vertex="1" parent="1">
          <mxGeometry x="300" y="380" width="40" height="40" as="geometry" />
        </mxCell>
        <mxCell id="bPSPjtZm-p1JGHKQZ9GO-20" style="edgeStyle=none;shape=connector;rounded=0;orthogonalLoop=1;jettySize=auto;html=1;strokeColor=default;align=center;verticalAlign=middle;fontFamily=Helvetica;fontSize=11;fontColor=default;labelBackgroundColor=default;endArrow=classic;" edge="1" parent="1" source="bPSPjtZm-p1JGHKQZ9GO-12" target="bPSPjtZm-p1JGHKQZ9GO-11">
          <mxGeometry relative="1" as="geometry">
            <Array as="points">
              <mxPoint x="240" y="430" />
            </Array>
          </mxGeometry>
        </mxCell>
        <mxCell id="bPSPjtZm-p1JGHKQZ9GO-12" value="" style="ellipse;whiteSpace=wrap;html=1;aspect=fixed;fillColor=none;strokeColor=#3b82f6;" vertex="1" parent="1">
          <mxGeometry x="140" y="380" width="40" height="40" as="geometry" />
        </mxCell>
        <mxCell id="bPSPjtZm-p1JGHKQZ9GO-21" style="edgeStyle=none;shape=connector;rounded=0;orthogonalLoop=1;jettySize=auto;html=1;strokeColor=default;align=center;verticalAlign=middle;fontFamily=Helvetica;fontSize=11;fontColor=default;labelBackgroundColor=default;endArrow=classic;" edge="1" parent="1" source="bPSPjtZm-p1JGHKQZ9GO-13" target="bPSPjtZm-p1JGHKQZ9GO-12">
          <mxGeometry relative="1" as="geometry" />
        </mxCell>
        <mxCell id="bPSPjtZm-p1JGHKQZ9GO-13" value="" style="ellipse;whiteSpace=wrap;html=1;aspect=fixed;fillColor=none;strokeColor=#3b82f6;" vertex="1" parent="1">
          <mxGeometry x="60" y="300" width="40" height="40" as="geometry" />
        </mxCell>
        <mxCell id="bPSPjtZm-p1JGHKQZ9GO-22" style="edgeStyle=none;shape=connector;rounded=0;orthogonalLoop=1;jettySize=auto;html=1;strokeColor=default;align=center;verticalAlign=middle;fontFamily=Helvetica;fontSize=11;fontColor=default;labelBackgroundColor=default;endArrow=classic;" edge="1" parent="1" source="bPSPjtZm-p1JGHKQZ9GO-14" target="bPSPjtZm-p1JGHKQZ9GO-2">
          <mxGeometry relative="1" as="geometry">
            <Array as="points">
              <mxPoint x="140" y="140" />
            </Array>
          </mxGeometry>
        </mxCell>
        <mxCell id="bPSPjtZm-p1JGHKQZ9GO-14" value="" style="ellipse;whiteSpace=wrap;html=1;aspect=fixed;fillColor=none;strokeColor=#ef4444;" vertex="1" parent="1">
          <mxGeometry x="60" y="140" width="40" height="40" as="geometry" />
        </mxCell>
      </root>
    </mxGraphModel>
  </diagram>
</mxfile>
